<svg xmlns="http://www.w3.org/2000/svg" version="1.1" width="430" height="210">
    <style>
        text { text-anchor: middle; }
        .state { r: 18px; fill: none; stroke: black; }
        .final { r: 16px; }
        .edge { fill: none; stroke: black; marker-end: url(#arrow); }
    </style>
    <defs>
        <marker id="arrow" viewBox="0 0 10 10" refX="10" refY="5" markerWidth="8" markerHeight="8" orient="auto">
            <path d="M 0 0 L 10 5 0 10 z" />
        </marker>
    </defs>

    <circle class="state" cx="40" cy="40" />
    <circle class="state" cx="140" cy="40" />
    <circle class="state" cx="240" cy="40" />

    <path class="edge" d="M 58 40 L 122 40" />
    <text x="90" y="30">expr</text>
    <path class="edge" d="M 52.272 52.272 L 127.720 127.728" />
    <text x="100" y="80">term</text>
    <path class="edge" d="M 40 58 L 40 142" />
    <text x="80" y="130">NUMBER</text>

    <path class="edge" d="M 158 40 L 222 40" />
    <text x="190" y="30">"+"</text>

    <path class="edge" d="M 227.728 52.272 L 152.272 127.728" />
    <text x="230" y="80">term</text>
    <path class="edge" d="M 252.272 52.272 Q 340 230 58 160" />
    <text x="290" y="180">NUMBER</text>

    <circle class="state" cx="140" cy="140" />
    <circle class="state" cx="240" cy="140" />
    <circle class="state" cx="380" cy="140" />

    <circle class="final state" cx="140" cy="140" />
    <path class="edge" d="M 158 140 L 222 140" />
    <text x="190" y="130">"*"</text>

    <path class="edge" d="M 258 140 L 362 140" />
    <text x="320" y="130">NUMBER</text>

    <circle class="final state" cx="380" cy="140" />

    <circle class="state" cx="40" cy="160" />

    <circle class="final state" cx="40" cy="160" />
</svg>
