<svg xmlns="http://www.w3.org/2000/svg" version="1.1" width="530" height="210">
    <style>
        text { text-anchor: middle; }
        .state { r: 18px; fill: none; stroke: black; }
        .final { r: 16px; }
        .edge { fill: none; stroke: black; marker-end: url(#arrow); }
    </style>
    <defs>
        <marker id="arrow" viewBox="0 0 10 10" refX="10" refY="5" markerWidth="8" markerHeight="8" orient="auto">
            <path d="M 0 0 L 10 5 0 10 z" />
        </marker>
    </defs>

    <circle class="state" cx="20" cy="60" />
    <circle class="state" cx="140" cy="60" />

    <path class="edge" d="M 32.728 47.728 Q 80 20 127.272 47.728" />
    <text x="80" y="28">NUMBER ; &#x3B5; / &#x3B5;</text>
    <path class="edge" d="M 32.728 72.728 Q 110 110 187.272 72.728" />
    <text x="110" y="106">&#x3B5; ; &#x3B5; / V</text>

    <path class="edge" d="M 152.728 72.728 Q 270 110 385.522 89" />
    <text x="300" y="110">&#x3B5; ; A / &#x3B5;</text>
    <circle class="final state" cx="140" cy="60" />

    <circle class="state" cx="200" cy="60" />
    <circle class="state" cx="300" cy="60" />
    <circle class="state" cx="400" cy="80" />
    <circle class="state" cx="400" cy="180" />
    <circle class="state" cx="500" cy="60" />

    <path class="edge" d="M 218 60 L 282 60" />
    <text x="250" y="52">"[" ; &#x3B5; / &#x3B5;</text>

    <path class="edge" d="M 312.728 47.728 Q 400 10 487.272 47.728" />
    <text x="400" y="18">"]" ; &#x3B5; / &#x3B5;</text>
    <path class="edge" d="M 285.588 69 Q 160 180 29 75.588" />
    <text x="160" y="140">&#x3B5; ; &#x3B5; / A</text>

    <path class="edge" d="M 418 80 L 485.422 69" />
    <text x="450" y="62">"]" ; &#x3B5; / &#x3B5;</text>
    <path class="edge" d="M 412.728 92.728 Q 440 130 412.728 167.272" />
    <text x="460" y="135">"," ; &#x3B5; / &#x3B5;</text>

    <path class="edge" d="M 382 180 Q 120 200 20 78" />
    <text x="220" y="170">&#x3B5; ; &#x3B5; / A</text>

    <path class="edge" d="M 491 75.588 Q 320 200 149 75.588" />
    <text x="320" y="152">&#x3B5; ; V / &#x3B5;</text>
</svg>
