<svg xmlns="http://www.w3.org/2000/svg" version="1.1" width="530" height="210">
    <style>
        text { text-anchor: middle; }
        .state { r: 18px; fill: none; stroke: black; }
        .final { r: 16px; }
        .edge { fill: none; stroke: black; marker-end: url(#arrow); }
        .dash { stroke-dasharray: 5, 5; }
    </style>
    <defs>
        <marker id="arrow" viewBox="0 0 10 10" refX="10" refY="5" markerWidth="8" markerHeight="8" orient="auto">
            <path d="M 0 0 L 10 5 0 10 z" />
        </marker>
    </defs>

    <circle class="state" cx="20" cy="60" />
    <circle class="state" cx="140" cy="60" />

    <path class="edge" d="M 32.728 47.728 Q 80 20 127.272 47.728" />
    <text x="80" y="28">NUMBER</text>
    <path class="dash edge" d="M 32.728 72.728 Q 80 100 127.272 72.728" />
    <text x="80" y="106">array</text>

    <circle class="final state" cx="140" cy="60" />

    <circle class="state" cx="200" cy="60" />
    <circle class="state" cx="300" cy="60" />
    <circle class="state" cx="400" cy="80" />
    <circle class="state" cx="400" cy="180" />
    <circle class="state" cx="500" cy="60" />

    <path class="edge" d="M 218 60 L 282 60" />
    <text x="250" y="52">"["</text>

    <path class="edge" d="M 312.728 47.728 Q 400 10 487.272 47.728" />
    <text x="400" y="18">"]"</text>
    <path class="dash edge" d="M 315.588 69 L 382 80" />
    <text x="350" y="62">value</text>

    <path class="edge" d="M 418 80 L 485.422 69" />
    <text x="450" y="62">"]"</text>
    <path class="edge" d="M 412.728 92.728 Q 440 130 412.728 167.272" />
    <text x="440" y="135">","</text>

    <path class="dash edge" d="M 387.722 167.272 Q 360 130 387.722 92.728" />
    <text x="350" y="135">value</text>

    <circle class="final state" cx="500" cy="60" />
</svg>
