<svg xmlns="http://www.w3.org/2000/svg" version="1.1" width="430" height="230">
    <style>
        text { text-anchor: middle; }
        .state { r: 18px; fill: none; stroke: black; }
        .final { r: 16px; }
        .edge { fill: none; stroke: black; marker-end: url(#arrow); }
    </style>
    <defs>
        <marker id="arrow" viewBox="0 0 10 10" refX="10" refY="5" markerWidth="8" markerHeight="8" orient="auto">
            <path d="M 0 0 L 10 5 0 10 z" />
        </marker>
    </defs>

    <circle class="state" cx="40" cy="120" />
    <circle class="state" cx="120" cy="80" />
    <circle class="state" cx="240" cy="80" />
    <circle class="state" cx="120" cy="160" />
    <circle class="state" cx="240" cy="160" />
    <circle class="state" cx="400" cy="120" />

    <path class="edge" d="M 52.728 108.272 A 18 18 0 1 0 28.382 107.272" />
    <text x="40" y="70">&#x3F5; ; &#x3F5; / P</text>
    <path class="edge" d="M 52.728 132.728 A 18 18 0 1 1 28.382 132.728" />
    <text x="40" y="180">&#x3F5; ; &#x3F5; / M</text>
    <path class="edge" d="M 58 120 L 382 120" />
    <text x="220" y="115">NUMBER ; &#x3F5; / &#x3F5;</text>

    <path class="edge" d="M 138 80 L 222 80" />
    <text x="180" y="74">"+" ; &#x3F5; / &#x3F5;</text>
    <path class="edge" d="M 258 80 L 384.412 111" />
    <text x="320" y="80">NUMBER ; &#x3F5; / &#x3F5;</text>

    <path class="edge" d="M 138 160 L 222 160" />
    <text x="180" y="174">"-" ; &#x3F5; / &#x3F5;</text>
    <path class="edge" d="M 258 160 L 384.412 129" />
    <text x="320" y="170">NUMBER ; &#x3F5; / &#x3F5;</text>

    <path class="edge" d="M 400 102 Q 340 -10 132.728 67.272" />
    <text x="270" y="30">&#x3F5; ; P / &#x3F5;</text>
    <path class="edge" d="M 400 139 Q 340 250 132.728 172.728" />
    <text x="270" y="220">&#x3F5; ; M / &#x3F5;</text>
    <circle class="final state" cx="400" cy="120" />
</svg>
